<svg xmlns="http://www.w3.org/2000/svg" style="display: none;"><symbol id="thumb-up" viewBox="0 -8 480 480"><title>thumb-up</title><path d="m480 264c-.050781-14.53125-8.003906-27.886719-20.761719-34.847656.355469-.320313.753907-.558594 1.097657-.894532 11.425781-11.449218 14.832031-28.65625 8.628906-43.59375-6.199219-14.941406-20.789063-24.671874-36.964844-24.664062h-160c-4.417969 0-8-3.582031-8-8v-104c-.027344-26.5-21.5-47.9726562-48-48h-16c-13.253906 0-24 10.746094-24 24v64c-.046875 39.746094-32.253906 71.953125-72 72h-24v-32h-80v16h64v304h-64v16h80v-55.351562l.703125.558593c18.457031 14.726563 41.359375 22.761719 64.96875 22.792969h254.328125c10.613281.011719 20.792969-4.199219 28.296875-11.703125s11.714844-17.683594 11.703125-28.296875c-.046875-8.996094-3.148438-17.707031-8.800781-24.703125 19.015625-3.410156 32.84375-19.976563 32.800781-39.296875-.03125-9.820312-3.703125-19.28125-10.304688-26.550781 5.484376-1.976563 10.480469-5.113281 14.640626-9.191407 7.472656-7.507812 11.664062-17.667968 11.664062-28.257812zm-22.976562 16.945312c-4.519532 4.507813-10.640626 7.046876-17.023438 7.054688h-112c-4.417969 0-8 3.582031-8 8s3.582031 8 8 8h96c13.253906 0 24 10.746094 24 24s-10.746094 24-24 24h-96c-4.417969 0-8 3.582031-8 8s3.582031 8 8 8h72c13.253906 0 24 10.746094 24 24s-10.746094 24-24 24h-254.328125c-19.976563-.027344-39.351563-6.820312-54.96875-19.28125l-10.703125-8.558594v-212.160156h24c48.578125-.058594 87.941406-39.421875 88-88v-64c0-4.417969 3.582031-8 8-8h16c17.671875 0 32 14.328125 32 32v104c0 13.253906 10.746094 24 24 24h160c13.253906 0 24 10.746094 24 24s-10.746094 24-24 24h-104c-4.417969 0-8 3.582031-8 8s3.582031 8 8 8h112c9.707031-.011719 18.460938 5.824219 22.1875 14.785156 3.726562 8.960938 1.6875 19.285156-5.164062 26.160156zm0 0"/></symbol><symbol id="passport" viewBox="-40 0 480 480"><title>passport</title><path d="m360 0h-352c-4.417969 0-8 3.582031-8 8v464c0 4.417969 3.582031 8 8 8h352c22.082031-.027344 39.972656-17.917969 40-40v-400c-.027344-22.082031-17.917969-39.9726562-40-40zm24 440c0 13.253906-10.746094 24-24 24h-344v-448h344c13.253906 0 24 10.746094 24 24zm0 0"/><path d="m99.824219 255.441406c.0625.144532.128906.289063.207031.429688.097656.128906.242188.183594.335938.304687 24.242187 30.242188 60.90625 47.835938 99.667968 47.824219 38.757813-.011719 75.414063-17.625 99.636719-47.878906.089844-.105469.214844-.136719.296875-.25.078125-.140625.144531-.285156.207031-.429688 37.097657-46.464844 37.097657-112.417968 0-158.882812-.0625-.144532-.128906-.289063-.207031-.429688-.097656-.128906-.242188-.183594-.335938-.304687-24.234374-30.230469-60.886718-47.824219-99.632812-47.824219s-75.398438 17.59375-99.632812 47.824219c-.09375.121093-.238282.175781-.335938.304687-.078125.140625-.144531.285156-.207031.429688-37.097657 46.464844-37.097657 112.417968 0 158.882812zm8.414062-143.441406c6.058594 3.871094 12.441407 7.203125 19.082031 9.960938-4.191406 15.007812-6.566406 30.464843-7.074218 46.039062h-31.839844c1.410156-20.121094 8.265625-39.476562 19.832031-56zm203.355469 56h-31.839844c-.503906-15.585938-2.878906-31.054688-7.074218-46.070312 6.636718-2.753907 13.019531-6.074219 19.082031-9.929688 11.566406 16.523438 18.421875 35.878906 19.832031 56zm-19.832031 72c-6.054688-3.871094-12.4375-7.203125-19.074219-9.960938 4.183594-15.007812 6.554688-30.464843 7.066406-46.039062h31.839844c-1.410156 20.121094-8.265625 39.476562-19.832031 56zm-83.761719-56h55.761719c-.542969 13.753906-2.691407 27.394531-6.402344 40.648438-16.03125-4.839844-32.625-7.566407-49.359375-8.105469zm0-16v-32.335938c16.738281-.582031 33.328125-3.367187 49.335938-8.289062 3.71875 13.246094 5.875 26.878906 6.425781 40.625zm-16 0h-55.761719c.542969-13.746094 2.691407-27.378906 6.402344-40.625 16.019531 4.917969 32.613281 7.703125 49.359375 8.289062zm0 16v32.542969c-16.726562.539062-33.308594 3.261719-49.328125 8.105469-3.71875-13.253907-5.878906-26.894532-6.433594-40.648438zm0 48.496094v54.480468c-18.03125-4.144531-33.960938-21.976562-44.175781-47.199218 14.355469-4.304688 29.199219-6.753906 44.175781-7.28125zm16 54.480468v-54.472656c14.976562.535156 29.820312 2.980469 44.175781 7.28125-10.214843 25.214844-26.144531 43.046875-44.175781 47.191406zm0-167.472656v-54.480468c18.03125 4.144531 33.960938 21.976562 44.175781 47.199218-14.355469 4.300782-29.199219 6.75-44.175781 7.28125zm-16-54.480468v54.472656c-14.976562-.535156-29.820312-2.980469-44.175781-7.28125 10.214843-25.214844 26.144531-43.046875 44.175781-47.191406zm-71.753906 118.976562c.503906 15.585938 2.878906 31.054688 7.074218 46.070312-6.636718 2.753907-13.019531 6.074219-19.082031 9.929688-11.566406-16.523438-18.421875-35.878906-19.832031-56zm-1.804688 68.519531c4.476563-2.765625 9.152344-5.195312 13.992188-7.273437 4.195312 10.917968 9.902344 21.195312 16.949218 30.53125-11.578124-5.90625-22.050781-13.777344-30.941406-23.257813zm132.175782 23.257813c7.054687-9.335938 12.757812-19.613282 16.949218-30.539063 4.835938 2.085938 9.511719 4.515625 13.992188 7.273438-8.890625 9.488281-19.359375 17.359375-30.941406 23.265625zm30.984374-176.296875c-4.480468 2.765625-9.15625 5.195312-13.992187 7.273437-4.199219-10.917968-9.90625-21.195312-16.953125-30.53125 11.582031 5.90625 22.050781 13.777344 30.945312 23.257813zm-132.21875-23.257813c-7.054687 9.335938-12.757812 19.613282-16.949218 30.539063-4.835938-2.085938-9.511719-4.515625-13.992188-7.273438 8.890625-9.488281 19.359375-17.359375 30.941406-23.265625zm0 0"/><path d="m328 336h-256c-4.417969 0-8 3.582031-8 8v80c0 4.417969 3.582031 8 8 8h256c4.417969 0 8-3.582031 8-8v-80c0-4.417969-3.582031-8-8-8zm-8 80h-240v-64h240zm0 0"/></symbol><symbol id="smile" viewBox="0 0 480 480"><title>smile</title><path d="m240 0c-132.546875 0-240 107.453125-240 240s107.453125 240 240 240 240-107.453125 240-240c-.148438-132.484375-107.515625-239.851562-240-240zm0 464c-123.710938 0-224-100.289062-224-224s100.289062-224 224-224 224 100.289062 224 224c-.140625 123.652344-100.347656 223.859375-224 224zm0 0"/><path d="m384 240h-288c-4.417969 0-8 3.582031-8 8 .035156 46.878906 21.738281 91.109375 58.800781 119.816406.292969.253906.605469.488282.933594.695313 54.390625 42.015625 130.300781 41.980469 184.648437-.085938.375-.238281.726563-.507812 1.058594-.800781 36.914063-28.71875 58.523438-72.855469 58.558594-119.625 0-4.417969-3.582031-8-8-8zm-223.863281 117.847656c1.464843-34.289062 36.664062-61.847656 79.863281-61.847656s78.398438 27.558594 79.863281 61.847656c-47.53125 34.867188-112.195312 34.867188-159.726562 0zm174.261719-12.105468c-8.109376-37.316407-47.308594-65.742188-94.398438-65.742188s-86.289062 28.425781-94.398438 65.742188c-24.585937-23.644532-39.359374-55.6875-41.371093-89.742188h271.539062c-2.011719 34.054688-16.785156 66.097656-41.371093 89.742188zm0 0"/><path d="m168 192c22.089844 0 40-17.910156 40-40s-17.910156-40-40-40-40 17.910156-40 40c.027344 22.082031 17.917969 39.972656 40 40zm0-64c13.253906 0 24 10.746094 24 24s-10.746094 24-24 24-24-10.746094-24-24 10.746094-24 24-24zm0 0"/><path d="m312 192c22.089844 0 40-17.910156 40-40s-17.910156-40-40-40-40 17.910156-40 40c.027344 22.082031 17.917969 39.972656 40 40zm0-64c13.253906 0 24 10.746094 24 24s-10.746094 24-24 24-24-10.746094-24-24 10.746094-24 24-24zm0 0"/></symbol></svg>